<svg width="1" height="1" viewBox="0 0 1 1" fill="none" xmlns="http://www.w3.org/2000/svg">
<g id="industry 1" clip-path="url(#clip0)">
<path id="Vector" d="M0.25708 0.684586H0.788747V1.0025H0.25708V0.684586Z" fill="#613400" stroke="#613400" stroke-width="0.01" stroke-linecap="square"/>
<g id="Vector_2">
<path d="M0.613342 0.684585L0.788759 0.605835V0.883752" fill="#613400"/>
<path d="M0.613342 0.684585L0.788759 0.605835V0.883752" stroke="#613400" stroke-width="0.01" stroke-linecap="square"/>
</g>
<g id="Vector_3">
<path d="M0.435822 0.684585L0.608738 0.605835L0.611238 0.883752" fill="#613400"/>
<path d="M0.435822 0.684585L0.608738 0.605835L0.611238 0.883752" stroke="#613400" stroke-width="0.01" stroke-linecap="square"/>
</g>
<g id="Vector_4">
<path d="M0.265839 0.685002L0.429589 0.605835L0.432089 0.883752" fill="#613400"/>
<path d="M0.265839 0.685002L0.429589 0.605835L0.432089 0.883752" stroke="#613400" stroke-width="0.01" stroke-linecap="square"/>
</g>
<path id="Vector_5" d="M0.464569 0.777496H0.582486V0.845413H0.464569V0.777496Z" fill="black" stroke="black" stroke-width="0.01" stroke-linecap="square"/>
<path id="Vector_6" d="M0.285828 0.777496H0.403328V0.845413H0.285828V0.777496Z" fill="black" stroke="black" stroke-width="0.01" stroke-linecap="square"/>
<path id="Vector_7" d="M0.64209 0.777496H0.75959V0.845413H0.64209V0.777496Z" fill="black" stroke="black" stroke-width="0.01" stroke-linecap="square"/>
<path id="Vector_8" d="M0.285828 0.884583H0.403328V0.952916H0.285828V0.884583Z" fill="black" stroke="black" stroke-width="0.01" stroke-linecap="square"/>
<path id="Vector_9" d="M0.464569 0.884583H0.582486V0.952916H0.464569V0.884583Z" fill="black" stroke="black" stroke-width="0.01" stroke-linecap="square"/>
<path id="Vector_10" d="M0.642487 0.884583H0.760403V0.952916H0.642487V0.884583Z" fill="black" stroke="black" stroke-width="0.01" stroke-linecap="square"/>
<path id="Vector_11" d="M0.667084 0.408752H0.735834V0.667502H0.667084V0.408752Z" fill="#613400" stroke="#613400" stroke-width="0.01" stroke-linecap="square"/>
<g id="smoke">
<path id="Vector_12" d="M0.731663 0.234589C0.763746 0.234589 0.789996 0.256672 0.789996 0.284172C0.789996 0.311672 0.763746 0.333755 0.731663 0.333755C0.699163 0.333755 0.672913 0.311672 0.672913 0.284172C0.672913 0.256672 0.699163 0.234589 0.731663 0.234589Z" fill="#747474" stroke="#747474" stroke-width="0.01" stroke-linecap="square"/>
<path id="Vector_13" d="M0.692072 0.255829C0.717906 0.255829 0.739156 0.272079 0.739156 0.292496C0.739156 0.312912 0.717906 0.329162 0.692072 0.329162C0.665822 0.329162 0.644989 0.312912 0.644989 0.292496C0.644989 0.272079 0.665822 0.255829 0.692072 0.255829Z" fill="#747474" stroke="#747474" stroke-width="0.01" stroke-linecap="square"/>
<path id="Vector_14" d="M0.701252 0.309586C0.713335 0.309586 0.723335 0.320419 0.723335 0.333752C0.723335 0.347502 0.713335 0.358336 0.701252 0.358336C0.689169 0.358336 0.679169 0.347502 0.679169 0.333752C0.679169 0.320419 0.689169 0.309586 0.701252 0.309586Z" fill="#747474" stroke="#747474" stroke-width="0.01" stroke-linecap="square"/>
<path id="Vector_15" d="M0.813751 0.233337C0.848335 0.233337 0.876251 0.260004 0.876251 0.292504C0.876251 0.325421 0.848335 0.351671 0.813751 0.351671C0.779168 0.351671 0.751251 0.325421 0.751251 0.292504C0.751251 0.260004 0.779168 0.233337 0.813751 0.233337Z" fill="#747474" stroke="#747474" stroke-width="0.01" stroke-linecap="square"/>
<path id="Vector_16" d="M0.87207 0.237076C0.889154 0.237076 0.90332 0.250826 0.90332 0.267909C0.90332 0.284576 0.889154 0.298326 0.87207 0.298326C0.85457 0.298326 0.84082 0.284576 0.84082 0.267909C0.84082 0.250826 0.85457 0.237076 0.87207 0.237076Z" fill="#747474" stroke="#747474" stroke-width="0.01" stroke-linecap="square"/>
<path id="Vector_17" d="M0.805845 0.0375061C0.818762 0.0375061 0.828762 0.0475061 0.828762 0.0595894C0.828762 0.0716728 0.818762 0.0816728 0.805845 0.0816728C0.793345 0.0816728 0.782928 0.0716728 0.782928 0.0595894C0.782928 0.0475061 0.793345 0.0375061 0.805845 0.0375061Z" fill="#747474" stroke="#747474" stroke-width="0.01" stroke-linecap="square"/>
<path id="Vector_18" d="M0.78875 0.0691681C0.79875 0.0666681 0.808333 0.0712514 0.81 0.0787514C0.812083 0.0862514 0.805416 0.0945848 0.795833 0.0970848C0.785833 0.0995848 0.77625 0.0950014 0.774583 0.0875014C0.7725 0.0800014 0.779166 0.0716681 0.78875 0.0691681Z" fill="#747474" stroke="#747474" stroke-width="0.01" stroke-linecap="square"/>
<path id="Vector_19" d="M0.783741 0.237915C0.795824 0.237915 0.805824 0.249165 0.805824 0.262498C0.805824 0.275832 0.795824 0.286665 0.783741 0.286665C0.771658 0.286665 0.761658 0.275832 0.761658 0.262498C0.761658 0.249165 0.771658 0.237915 0.783741 0.237915Z" fill="#747474" stroke="#747474" stroke-width="0.01" stroke-linecap="square"/>
<path id="Vector_20" d="M0.804577 -0.00874329C0.809993 -0.00874329 0.81416 -0.00374329 0.81416 0.00250671C0.81416 0.00917338 0.809993 0.0141734 0.804577 0.0141734C0.799577 0.0141734 0.79541 0.00917338 0.79541 0.00250671C0.79541 -0.00374329 0.799577 -0.00874329 0.804577 -0.00874329Z" fill="#747474" stroke="#747474" stroke-width="0.01" stroke-linecap="square"/>
<path id="Vector_21" d="M0.8775 0.133743C0.895833 0.133743 0.910833 0.14791 0.910833 0.165827C0.910833 0.183327 0.895833 0.19791 0.8775 0.19791C0.85875 0.19791 0.84375 0.183327 0.84375 0.165827C0.84375 0.14791 0.85875 0.133743 0.8775 0.133743Z" fill="#747474" stroke="#747474" stroke-width="0.01" stroke-linecap="square"/>
<path id="Vector_22" d="M0.861256 0.125C0.873339 0.125 0.883339 0.13625 0.883339 0.149583C0.883339 0.162917 0.873339 0.17375 0.861256 0.17375C0.849172 0.17375 0.839172 0.162917 0.839172 0.149583C0.839172 0.13625 0.849172 0.125 0.861256 0.125Z" fill="#747474" stroke="#747474" stroke-width="0.01" stroke-linecap="square"/>
<path id="Vector_23" d="M0.910824 0.0879211C0.935824 0.0879211 0.95624 0.106671 0.95624 0.130004C0.95624 0.153338 0.935824 0.172504 0.910824 0.172504C0.885407 0.172504 0.86499 0.153338 0.86499 0.130004C0.86499 0.106671 0.885407 0.0879211 0.910824 0.0879211Z" fill="#747474" stroke="#747474" stroke-width="0.01" stroke-linecap="square"/>
<path id="Vector_24" d="M0.707493 0.145828C0.722909 0.145828 0.735409 0.154162 0.735409 0.164162C0.735409 0.174162 0.722909 0.182495 0.707493 0.182495C0.692493 0.182495 0.679993 0.174162 0.679993 0.164162C0.679993 0.154162 0.692493 0.145828 0.707493 0.145828Z" fill="#747474" stroke="#747474" stroke-width="0.01" stroke-linecap="square"/>
<path id="Vector_25" d="M0.700011 0.130829C0.712095 0.130829 0.721678 0.141662 0.721678 0.154996C0.721678 0.167912 0.712095 0.178746 0.700011 0.178746C0.687928 0.178746 0.678345 0.167912 0.678345 0.154996C0.678345 0.141662 0.687928 0.130829 0.700011 0.130829Z" fill="#747474" stroke="#747474" stroke-width="0.01" stroke-linecap="square"/>
<path id="Vector_26" d="M0.725845 0.103333C0.735011 0.103333 0.742511 0.113749 0.742511 0.127083C0.742511 0.140416 0.735011 0.151249 0.725845 0.151249C0.717095 0.151249 0.709595 0.140416 0.709595 0.127083C0.709595 0.113749 0.717095 0.103333 0.725845 0.103333Z" fill="#747474" stroke="#747474" stroke-width="0.01" stroke-linecap="square"/>
<path id="Vector_27" d="M0.695403 -0.0187531C0.707903 -0.0187531 0.717487 -0.00916972 0.717487 0.00208028C0.717487 0.0137469 0.707903 0.0233303 0.695403 0.0233303C0.68332 0.0233303 0.673737 0.0137469 0.673737 0.00208028C0.673737 -0.00916972 0.68332 -0.0187531 0.695403 -0.0187531Z" fill="#747474" stroke="#747474" stroke-width="0.01" stroke-linecap="square"/>
<path id="Vector_28" d="M0.699574 0.0104218C0.705407 0.0104218 0.710407 0.0166718 0.710407 0.0237551C0.710407 0.0312551 0.705407 0.0370884 0.699574 0.0370884C0.693324 0.0370884 0.688324 0.0312551 0.688324 0.0237551C0.688324 0.0166718 0.693324 0.0104218 0.699574 0.0104218Z" fill="#747474" stroke="#747474" stroke-width="0.01" stroke-linecap="square"/>
<path id="Vector_29" d="M0.696671 0.0287476C0.704588 0.0287476 0.711254 0.0341642 0.711254 0.0412476C0.711254 0.0483309 0.704588 0.0537476 0.696671 0.0537476C0.688338 0.0537476 0.681671 0.0483309 0.681671 0.0412476C0.681671 0.0341642 0.688338 0.0287476 0.696671 0.0287476Z" fill="#747474" stroke="#747474" stroke-width="0.01" stroke-linecap="square"/>
<path id="Vector_30" d="M0.891673 0.030838C0.897506 0.030838 0.902089 0.033338 0.902089 0.0362547C0.902089 0.039588 0.897506 0.042088 0.891673 0.042088C0.885839 0.042088 0.881256 0.039588 0.881256 0.0362547C0.881256 0.033338 0.885839 0.030838 0.891673 0.030838Z" fill="#747474" stroke="#747474" stroke-width="0.01" stroke-linecap="square"/>
<path id="Vector_31" d="M0.897496 0.0245819C0.900413 0.0245819 0.902913 0.0270819 0.902913 0.0304152C0.902913 0.0337486 0.900413 0.0366652 0.897496 0.0366652C0.894163 0.0366652 0.891663 0.0337486 0.891663 0.0304152C0.891663 0.0270819 0.894163 0.0245819 0.897496 0.0245819Z" fill="#747474" stroke="#747474" stroke-width="0.01" stroke-linecap="square"/>
</g>
</g>
<defs>
<clipPath id="clip0">
<rect width="1" height="1" fill="white"/>
</clipPath>
</defs>
</svg>
